# xmcd
#
# Track frame offsets:
#	150
#	18131
#	34638
#	60375
#	75978
#	92699
#	108800
#	124728
#	150024
#	165568
#	179886
#
# Disc length: 2647 seconds
#
# Revision: 1
# Processed by: cddbd v1.5.2PL0 Copyright (c) Steve Scherf et al.
# Submitted via: audiograbber 1.83.01
#
DISCID=6e0a550b
DTITLE=John Anthony Franklin - Last Cowboy
DYEAR=2008
DGENRE=Country
TTITLE0=Tennessee Highway
TTITLE1=Wounds Of Love
TTITLE2=Lament Of The Last Jackson Hole Cowboy
TTITLE3=Trucking Highway
TTITLE4=Pretty Peggy
TTITLE5=Nowhere Town
TTITLE6=Holy Girl
TTITLE7=Who´s Your Daddy
TTITLE8=Cowgirl Hat
TTITLE9=Greatest Gift
TTITLE10=Veil Of Time
EXTD=
EXTT0=
EXTT1=
EXTT2=
EXTT3=
EXTT4=
EXTT5=
EXTT6=
EXTT7=
EXTT8=
EXTT9=
EXTT10=
PLAYORDER=
